<mxfile host="app.diagrams.net" modified="2023-10-04T13:59:32.521Z" agent="Mozilla/5.0 (Windows NT 10.0; Win64; x64) AppleWebKit/537.36 (KHTML, like Gecko) Chrome/117.0.0.0 Safari/537.36 Edg/117.0.2045.47" etag="TlZEti2uGgti0zL4Nfo2" version="22.0.2" type="device">
  <diagram name="Page-1" id="UIzJ5FR39z4uWj9MNsok">
    <mxGraphModel dx="996" dy="587" grid="1" gridSize="10" guides="1" tooltips="1" connect="1" arrows="1" fold="1" page="1" pageScale="1" pageWidth="827" pageHeight="1169" math="0" shadow="0">
      <root>
        <mxCell id="0" />
        <mxCell id="1" parent="0" />
        <mxCell id="KOFLOMsFTqZGjl-oGizV-4" style="edgeStyle=orthogonalEdgeStyle;rounded=0;orthogonalLoop=1;jettySize=auto;html=1;exitX=0.5;exitY=1;exitDx=0;exitDy=0;entryX=0.5;entryY=0;entryDx=0;entryDy=0;" edge="1" parent="1" source="KOFLOMsFTqZGjl-oGizV-1" target="KOFLOMsFTqZGjl-oGizV-2">
          <mxGeometry relative="1" as="geometry" />
        </mxCell>
        <mxCell id="KOFLOMsFTqZGjl-oGizV-1" value="start" style="rounded=1;whiteSpace=wrap;html=1;" vertex="1" parent="1">
          <mxGeometry x="360" width="120" height="60" as="geometry" />
        </mxCell>
        <mxCell id="KOFLOMsFTqZGjl-oGizV-5" style="edgeStyle=orthogonalEdgeStyle;rounded=0;orthogonalLoop=1;jettySize=auto;html=1;exitX=0.5;exitY=1;exitDx=0;exitDy=0;entryX=0.5;entryY=0;entryDx=0;entryDy=0;" edge="1" parent="1" source="KOFLOMsFTqZGjl-oGizV-2" target="KOFLOMsFTqZGjl-oGizV-3">
          <mxGeometry relative="1" as="geometry" />
        </mxCell>
        <mxCell id="KOFLOMsFTqZGjl-oGizV-2" value="output: &quot;enter a number&quot;" style="shape=parallelogram;perimeter=parallelogramPerimeter;whiteSpace=wrap;html=1;fixedSize=1;" vertex="1" parent="1">
          <mxGeometry x="360" y="80" width="120" height="60" as="geometry" />
        </mxCell>
        <mxCell id="KOFLOMsFTqZGjl-oGizV-7" style="edgeStyle=orthogonalEdgeStyle;rounded=0;orthogonalLoop=1;jettySize=auto;html=1;exitX=0.5;exitY=1;exitDx=0;exitDy=0;entryX=0.5;entryY=0;entryDx=0;entryDy=0;" edge="1" parent="1" source="KOFLOMsFTqZGjl-oGizV-3" target="KOFLOMsFTqZGjl-oGizV-6">
          <mxGeometry relative="1" as="geometry" />
        </mxCell>
        <mxCell id="KOFLOMsFTqZGjl-oGizV-3" value="user enters&lt;br&gt;a number" style="shape=parallelogram;perimeter=parallelogramPerimeter;whiteSpace=wrap;html=1;fixedSize=1;" vertex="1" parent="1">
          <mxGeometry x="360" y="160" width="120" height="60" as="geometry" />
        </mxCell>
        <mxCell id="KOFLOMsFTqZGjl-oGizV-10" style="edgeStyle=orthogonalEdgeStyle;rounded=0;orthogonalLoop=1;jettySize=auto;html=1;exitX=0;exitY=0.5;exitDx=0;exitDy=0;entryX=0.5;entryY=0;entryDx=0;entryDy=0;" edge="1" parent="1" source="KOFLOMsFTqZGjl-oGizV-6" target="KOFLOMsFTqZGjl-oGizV-9">
          <mxGeometry relative="1" as="geometry" />
        </mxCell>
        <mxCell id="KOFLOMsFTqZGjl-oGizV-13" style="edgeStyle=orthogonalEdgeStyle;rounded=0;orthogonalLoop=1;jettySize=auto;html=1;exitX=0.5;exitY=1;exitDx=0;exitDy=0;entryX=0.5;entryY=0;entryDx=0;entryDy=0;" edge="1" parent="1" source="KOFLOMsFTqZGjl-oGizV-6" target="KOFLOMsFTqZGjl-oGizV-8">
          <mxGeometry relative="1" as="geometry" />
        </mxCell>
        <mxCell id="KOFLOMsFTqZGjl-oGizV-6" value="is the&lt;br&gt;number &amp;lt; 0?" style="rhombus;whiteSpace=wrap;html=1;" vertex="1" parent="1">
          <mxGeometry x="359" y="240" width="120" height="120" as="geometry" />
        </mxCell>
        <mxCell id="KOFLOMsFTqZGjl-oGizV-16" style="edgeStyle=orthogonalEdgeStyle;rounded=0;orthogonalLoop=1;jettySize=auto;html=1;exitX=0.5;exitY=1;exitDx=0;exitDy=0;entryX=0.5;entryY=0;entryDx=0;entryDy=0;" edge="1" parent="1" source="KOFLOMsFTqZGjl-oGizV-8" target="KOFLOMsFTqZGjl-oGizV-15">
          <mxGeometry relative="1" as="geometry" />
        </mxCell>
        <mxCell id="KOFLOMsFTqZGjl-oGizV-8" value="output number" style="shape=parallelogram;perimeter=parallelogramPerimeter;whiteSpace=wrap;html=1;fixedSize=1;" vertex="1" parent="1">
          <mxGeometry x="359" y="400" width="120" height="60" as="geometry" />
        </mxCell>
        <mxCell id="KOFLOMsFTqZGjl-oGizV-14" style="edgeStyle=orthogonalEdgeStyle;rounded=0;orthogonalLoop=1;jettySize=auto;html=1;exitX=0.5;exitY=1;exitDx=0;exitDy=0;entryX=0;entryY=0.5;entryDx=0;entryDy=0;" edge="1" parent="1" source="KOFLOMsFTqZGjl-oGizV-9" target="KOFLOMsFTqZGjl-oGizV-8">
          <mxGeometry relative="1" as="geometry">
            <Array as="points">
              <mxPoint x="260" y="430" />
            </Array>
          </mxGeometry>
        </mxCell>
        <mxCell id="KOFLOMsFTqZGjl-oGizV-9" value="set number to&lt;br&gt;number * -1" style="rounded=0;whiteSpace=wrap;html=1;" vertex="1" parent="1">
          <mxGeometry x="200" y="345" width="120" height="60" as="geometry" />
        </mxCell>
        <mxCell id="KOFLOMsFTqZGjl-oGizV-11" value="Yes" style="text;html=1;strokeColor=none;fillColor=none;align=center;verticalAlign=middle;whiteSpace=wrap;rounded=0;" vertex="1" parent="1">
          <mxGeometry x="280" y="270" width="60" height="30" as="geometry" />
        </mxCell>
        <mxCell id="KOFLOMsFTqZGjl-oGizV-12" value="No" style="text;html=1;strokeColor=none;fillColor=none;align=center;verticalAlign=middle;whiteSpace=wrap;rounded=0;" vertex="1" parent="1">
          <mxGeometry x="414" y="360" width="60" height="30" as="geometry" />
        </mxCell>
        <mxCell id="KOFLOMsFTqZGjl-oGizV-15" value="end" style="rounded=1;whiteSpace=wrap;html=1;" vertex="1" parent="1">
          <mxGeometry x="359" y="480" width="120" height="60" as="geometry" />
        </mxCell>
      </root>
    </mxGraphModel>
  </diagram>
</mxfile>
